# xmcd
#
# Track frame offsets: 
#        150
#        15473
#        31647
#        45320
#        61750
#        76388
#        96639
#        132848
#        151177
#        166272
#        182382
#        193892
#        221679
#        230519
#
# Disc length: 3324 seconds
#
# Revision: 0
# Processed by: cddbd v1.5.2PL0 Copyright (c) Steve Scherf et al.
# Submitted via: ExactAudioCopy v0.99pb5
#
DISCID=a80cfa0e
DTITLE=The Calamity Cubes - Special WV Fest 2007 Ltd Edition
DYEAR=2007
DGENRE=Grass Core
TTITLE0=Bottom's the Limit
TTITLE1=Sweet Girl
TTITLE2=I SHot First
TTITLE3=IVAN
TTITLE4=Daughter of the Devil
TTITLE5=Sweet Aphrodite
TTITLE6=Never Had It
TTITLE7=Bent
TTITLE8=Dreams
TTITLE9=Fuck Yeah Anxious
TTITLE10=Four Things
TTITLE11=Walk the Plank
TTITLE12=Daniel Boone
TTITLE13=IVAN Outtake
EXTD=
EXTT0=
EXTT1=
EXTT2=
EXTT3=
EXTT4=
EXTT5=
EXTT6=
EXTT7=
EXTT8=
EXTT9=
EXTT10=
EXTT11=
EXTT12=
EXTT13=
PLAYORDER=
